<svg width="14" height="14" viewBox="0 0 14 14" fill="none" xmlns="http://www.w3.org/2000/svg">
<path d="M0 1C0 0.447715 0.447715 0 1 0H4C4.55229 0 5 0.447715 5 1V4C5 4.55229 4.55229 5 4 5H1C0.447715 5 0 4.55229 0 4V1Z" fill="white" fill-opacity="0.75"/>
<path d="M0 10C0 9.44771 0.447715 9 1 9H4C4.55229 9 5 9.44771 5 10V13C5 13.5523 4.55229 14 4 14H1C0.447715 14 0 13.5523 0 13V10Z" fill="white" fill-opacity="0.75"/>
<path d="M10 0C9.44771 0 9 0.447715 9 1V4C9 4.55229 9.44771 5 10 5H13C13.5523 5 14 4.55229 14 4V1C14 0.447715 13.5523 0 13 0H10Z" fill="white" fill-opacity="0.75"/>
<path d="M9 10C9 9.44771 9.44771 9 10 9H13C13.5523 9 14 9.44771 14 10V13C14 13.5523 13.5523 14 13 14H10C9.44771 14 9 13.5523 9 13V10Z" fill="white" fill-opacity="0.75"/>
</svg>
