<svg width="8" height="14" viewBox="0 0 8 14" fill="none" xmlns="http://www.w3.org/2000/svg">
<path d="M1.5 3.5C2.33 3.5 3 2.83 3 2C3 1.17 2.33 0.5 1.5 0.5C0.67 0.5 0 1.17 0 2C0 2.83 0.67 3.5 1.5 3.5ZM1.5 5.5C0.67 5.5 0 6.17 0 7C0 7.83 0.67 8.5 1.5 8.5C2.33 8.5 3 7.83 3 7C3 6.17 2.33 5.5 1.5 5.5ZM1.5 10.5C0.67 10.5 0 11.17 0 12C0 12.83 0.67 13.5 1.5 13.5C2.33 13.5 3 12.83 3 12C3 11.17 2.33 10.5 1.5 10.5Z" fill="white" fill-opacity="0.75"/>
<path d="M6.5 3.5C7.33 3.5 8 2.83 8 2C8 1.17 7.33 0.5 6.5 0.5C5.67 0.5 5 1.17 5 2C5 2.83 5.67 3.5 6.5 3.5ZM6.5 5.5C5.67 5.5 5 6.17 5 7C5 7.83 5.67 8.5 6.5 8.5C7.33 8.5 8 7.83 8 7C8 6.17 7.33 5.5 6.5 5.5ZM6.5 10.5C5.67 10.5 5 11.17 5 12C5 12.83 5.67 13.5 6.5 13.5C7.33 13.5 8 12.83 8 12C8 11.17 7.33 10.5 6.5 10.5Z" fill="white" fill-opacity="0.75"/>
</svg>
