<svg width="10" height="13" viewBox="0 0 10 13" fill="none" xmlns="http://www.w3.org/2000/svg">
<path d="M5 0C4.44772 0 4 0.447715 4 1C4 1.04201 4.00259 1.08342 4.00762 1.12406C2.27853 1.56545 1 3.13342 1 5V8C0.447715 8 0 8.44772 0 9C0 9.55228 0.447716 10 1 10H9C9.55229 10 10 9.55228 10 9C10 8.44772 9.55228 8 9 8V5C9 3.13342 7.72147 1.56545 5.99238 1.12406C5.99741 1.08342 6 1.04201 6 1C6 0.447715 5.55228 0 5 0Z" fill="white" fill-opacity="0.75"/>
<path d="M7 11C7 12.1046 6.10457 13 5 13C3.89543 13 3 12.1046 3 11H7Z" fill="white" fill-opacity="0.75"/>
</svg>
