<svg width="20" height="20" viewBox="0 0 20 20" fill="none" xmlns="http://www.w3.org/2000/svg">
<path fill-rule="evenodd" clip-rule="evenodd" d="M10 20C15.5228 20 20 15.5228 20 10C20 4.47715 15.5228 0 10 0C4.47715 0 0 4.47715 0 10C0 15.5228 4.47715 20 10 20ZM8.13141 7.14286H5.71429C5.71429 4.57143 7.5475 2.85714 10.2857 2.85714C12.8366 2.85714 14.5714 4.49356 14.5714 6.71429C14.5714 8.15632 13.9719 9.20208 12.7143 10C11.528 10.7402 11.0571 11.0671 11.0571 11.99L11.1286 12.8571H8.77143L8.67143 11.9708C8.55548 10.4326 9.19771 9.63584 10.4286 8.85714C11.5792 8.1169 11.8571 7.7512 11.8571 6.85714C11.8571 5.86548 11.1313 5.16439 10 5.16439C8.86867 5.16439 8.18493 6.08537 8.13141 7.14286ZM11.5832 15.7818C11.5832 16.7912 10.9677 17.4161 9.96878 17.4161C8.96982 17.4161 8.34547 16.7912 8.34547 15.7818C8.34547 14.7627 8.96982 14.1379 9.96878 14.1379C10.9677 14.1379 11.5832 14.7627 11.5832 15.7818Z" fill="white" fill-opacity="0.75"/>
</svg>
