<svg width="12" height="12" viewBox="0 0 12 12" fill="none" xmlns="http://www.w3.org/2000/svg">
<path d="M10.4606 6.588C10.4846 6.396 10.5026 6.204 10.5026 6C10.5026 5.796 10.4846 5.604 10.4606 5.412L11.7266 4.422C11.8406 4.332 11.8706 4.17 11.7986 4.038L10.5986 1.962C10.5266 1.83 10.3646 1.782 10.2326 1.83L8.73861 2.43C8.42661 2.19 8.09061 1.992 7.72461 1.842L7.49661 0.252C7.47861 0.108 7.35261 0 7.20261 0H4.80261C4.65261 0 4.52661 0.108 4.50861 0.252L4.28061 1.842C3.91461 1.992 3.57861 2.196 3.26661 2.43L1.77261 1.83C1.63461 1.776 1.47861 1.83 1.40661 1.962L0.206607 4.038C0.128607 4.17 0.164608 4.332 0.278608 4.422L1.54461 5.412C1.52061 5.604 1.50261 5.802 1.50261 6C1.50261 6.198 1.52061 6.396 1.54461 6.588L0.278608 7.578C0.164608 7.668 0.134607 7.83 0.206607 7.962L1.40661 10.038C1.47861 10.17 1.64061 10.218 1.77261 10.17L3.26661 9.57C3.57861 9.81 3.91461 10.008 4.28061 10.158L4.50861 11.748C4.52661 11.892 4.65261 12 4.80261 12H7.20261C7.35261 12 7.47861 11.892 7.49661 11.748L7.72461 10.158C8.09061 10.008 8.42661 9.804 8.73861 9.57L10.2326 10.17C10.3706 10.224 10.5266 10.17 10.5986 10.038L11.7986 7.962C11.8706 7.83 11.8406 7.668 11.7266 7.578L10.4606 6.588ZM6.00261 8.1C4.84461 8.1 3.90261 7.158 3.90261 6C3.90261 4.842 4.84461 3.9 6.00261 3.9C7.16061 3.9 8.10261 4.842 8.10261 6C8.10261 7.158 7.16061 8.1 6.00261 8.1Z" fill="white" fill-opacity="0.75"/>
</svg>
